<svg width="48" height="48" viewBox="0 0 48 48" fill="none" xmlns="http://www.w3.org/2000/svg">
<path d="M32.74 25.5801C32.4957 25.4829 32.2347 25.4348 31.9719 25.4385C31.709 25.4422 31.4495 25.4976 31.208 25.6016C30.9666 25.7056 30.748 25.8562 30.5648 26.0446C30.3815 26.2331 30.2372 26.4558 30.14 26.7001C30.0428 26.9443 29.9947 27.2054 29.9984 27.4682C30.0021 27.7311 30.0575 27.9906 30.1615 28.2321C30.2655 28.4735 30.4161 28.6921 30.6045 28.8753C30.793 29.0586 31.0157 29.2029 31.26 29.3001C34.18 30.4601 36 32.2601 36 34.0001C36 36.8401 31.08 40.0001 24 40.0001C16.92 40.0001 12 36.8401 12 34.0001C12 32.2601 13.82 30.4601 16.74 29.3001C17.2333 29.1038 17.6284 28.7196 17.8385 28.2321C18.0485 27.7445 18.0563 27.1934 17.86 26.7001C17.6637 26.2068 17.2796 25.8117 16.792 25.6016C16.3044 25.3916 15.7533 25.3838 15.26 25.5801C10.72 27.3801 8 30.5201 8 34.0001C8 39.6001 15.02 44.0001 24 44.0001C32.98 44.0001 40 39.6001 40 34.0001C40 30.5201 37.28 27.3801 32.74 25.5801ZM22 19.7201V34.0001C22 34.5305 22.2107 35.0392 22.5858 35.4143C22.9609 35.7894 23.4696 36.0001 24 36.0001C24.5304 36.0001 25.0391 35.7894 25.4142 35.4143C25.7893 35.0392 26 34.5305 26 34.0001V19.7201C27.8853 19.2333 29.5284 18.0756 30.6212 16.4641C31.714 14.8525 32.1816 12.8977 31.9362 10.9661C31.6909 9.03446 30.7495 7.25862 29.2885 5.97144C27.8275 4.68427 25.9471 3.97412 24 3.97412C22.0529 3.97412 20.1725 4.68427 18.7115 5.97144C17.2505 7.25862 16.3091 9.03446 16.0638 10.9661C15.8184 12.8977 16.286 14.8525 17.3788 16.4641C18.4716 18.0756 20.1147 19.2333 22 19.7201ZM24 8.00009C24.7911 8.00009 25.5645 8.23468 26.2223 8.67421C26.8801 9.11374 27.3928 9.73845 27.6955 10.4694C27.9983 11.2003 28.0775 12.0045 27.9231 12.7804C27.7688 13.5564 27.3878 14.2691 26.8284 14.8285C26.269 15.3879 25.5563 15.7689 24.7804 15.9232C24.0044 16.0776 23.2002 15.9984 22.4693 15.6956C21.7384 15.3929 21.1136 14.8802 20.6741 14.2224C20.2346 13.5646 20 12.7912 20 12.0001C20 10.9392 20.4214 9.92181 21.1716 9.17166C21.9217 8.42152 22.9391 8.00009 24 8.00009Z" fill="#F69540"/>
</svg>
