<svg>
    <symbol id="footer-up" idth="62px" height="62px" viewBox="0 0 62 62">
        <path d="M32.8341 21.4157C32.5885 21.1805 32.2987 20.9961 31.9816 20.8732C31.3527 20.6148 30.6472 20.6148 30.0183 20.8732C29.7012 20.9961 29.4115 21.1805 29.1658 21.4157L21.4158 29.1657C20.9294 29.6521 20.6561 30.3119 20.6561 30.9998C20.6561 31.6878 20.9294 32.3476 21.4158 32.834C21.9023 33.3205 22.562 33.5937 23.25 33.5937C23.9379 33.5937 24.5977 33.3205 25.0841 32.834L28.4166 29.4757V38.7498C28.4166 39.435 28.6888 40.0921 29.1733 40.5765C29.6577 41.061 30.3148 41.3332 31 41.3332C31.6851 41.3332 32.3422 41.061 32.8267 40.5765C33.3111 40.0921 33.5833 39.435 33.5833 38.7498V29.4757L36.9158 32.834C37.156 33.0761 37.4417 33.2683 37.7565 33.3995C38.0713 33.5306 38.4089 33.5982 38.75 33.5982C39.091 33.5982 39.4287 33.5306 39.7435 33.3995C40.0583 33.2683 40.344 33.0761 40.5841 32.834C40.8263 32.5939 41.0185 32.3081 41.1496 31.9933C41.2808 31.6785 41.3483 31.3409 41.3483 30.9998C41.3483 30.6588 41.2808 30.3212 41.1496 30.0063C41.0185 29.6915 40.8263 29.4058 40.5841 29.1657L32.8341 21.4157ZM31 5.1665C25.8906 5.1665 20.896 6.6816 16.6477 9.52021C12.3995 12.3588 9.08835 16.3934 7.13308 21.1138C5.17782 25.8343 4.66623 31.0285 5.66302 36.0397C6.6598 41.0508 9.12019 45.6539 12.733 49.2668C16.3459 52.8796 20.949 55.34 25.9601 56.3368C30.9713 57.3336 36.1655 56.822 40.886 54.8667C45.6064 52.9115 49.641 49.6003 52.4796 45.3521C55.3182 41.1038 56.8333 36.1092 56.8333 30.9998C56.8333 27.6074 56.1651 24.2481 54.8669 21.1138C53.5686 17.9796 51.6657 15.1318 49.2669 12.7329C46.868 10.3341 44.0202 8.4312 40.886 7.13295C37.7517 5.8347 34.3925 5.1665 31 5.1665ZM31 51.6665C26.9125 51.6665 22.9168 50.4544 19.5182 48.1835C16.1196 45.9127 13.4707 42.685 11.9065 38.9086C10.3422 35.1323 9.93298 30.9769 10.7304 26.968C11.5278 22.959 13.4961 19.2766 16.3864 16.3863C19.2767 13.496 22.9592 11.5277 26.9681 10.7303C30.977 9.93285 35.1324 10.3421 38.9088 11.9063C42.6851 13.4705 45.9128 16.1194 48.1837 19.5181C50.4546 22.9167 51.6666 26.9124 51.6666 30.9998C51.6666 36.481 49.4893 41.7376 45.6135 45.6134C41.7378 49.4891 36.4811 51.6665 31 51.6665Z" fill=""/>
    </symbol>
</svg>